# xmcd
#
# Track frame offsets:
#	150
#	15019
#	32503
#	50026
#	70121
#	87043
#	105488
#	120748
#	134544
#
# Disc length: 2041 seconds
#
# Revision: 0
# Processed by: cddbd v1.5.1PL2 Copyright (c) Steve Scherf et al.
# Submitted via: audiograbber 1.83.01
#
DISCID=6807f709
DTITLE=The Lavernes - 2 EPs
DYEAR=2006
DGENRE=Rock
TTITLE0=Adeline
TTITLE1=CNM
TTITLE2=The Menace
TTITLE3=Run
TTITLE4=Howlin
TTITLE5=Love in Waves
TTITLE6=Amber Says
TTITLE7=Worse by Far
TTITLE8=A Little Longer
EXTD=© 2006, The Lavernes
EXTT0=
EXTT1=
EXTT2=
EXTT3=
EXTT4=
EXTT5=
EXTT6=
EXTT7=
EXTT8=
PLAYORDER=
